<svg width="177" height="44" viewBox="0 0 177 44" fill="none" xmlns="http://www.w3.org/2000/svg">
<path d="M24.4908 4.6841C25.1188 4.80629 25.5847 5.02013 25.8886 5.32562C26.2127 5.6311 26.3747 5.9875 26.3747 6.39481C26.3747 7.06688 26.1823 7.55566 25.7974 7.86114C25.4328 8.16663 24.8453 8.28882 24.035 8.22772C22.2119 8.08516 20.7838 7.99352 19.7507 7.95279C18.7378 7.89169 17.4008 7.85096 15.7398 7.83059C14.9902 11.5779 14.3015 15.3455 13.6735 19.1335C13.4507 20.5184 13.2177 22.1273 12.9747 23.9602C12.7316 25.7727 12.5695 27.2391 12.4885 28.3592C12.448 28.9498 12.2049 29.408 11.7592 29.7339C11.3136 30.0393 10.7768 30.1921 10.1488 30.1921C9.48031 30.1921 8.96376 30.0292 8.59913 29.7033C8.2345 29.3775 8.05219 28.9498 8.05219 28.4203C8.05219 27.9315 8.12309 27.1271 8.26489 26.0069C8.42695 24.8665 8.60926 23.6751 8.81183 22.4328C9.03466 21.1905 9.20684 20.1111 9.32839 19.1946C9.55121 17.6468 9.80443 16.1092 10.088 14.5818C10.3716 13.0544 10.6552 11.6084 10.9388 10.2439C10.9996 9.93844 11.0705 9.59222 11.1515 9.20528C11.2326 8.79796 11.3237 8.34992 11.425 7.86114C9.4398 7.92224 7.88001 8.08516 6.74561 8.34992C5.61121 8.61467 4.80093 8.99144 4.31476 9.48021C3.84885 9.94862 3.61589 10.5596 3.61589 11.3131C3.61589 12.0056 3.81846 12.6674 4.2236 13.2988C4.30463 13.4413 4.34514 13.5941 4.34514 13.757C4.34514 14.1439 4.11219 14.5105 3.64627 14.8567C3.20062 15.1826 2.73471 15.3455 2.24854 15.3455C1.90417 15.3455 1.62057 15.2437 1.39774 15.04C0.992597 14.6938 0.658355 14.205 0.395013 13.5737C0.131671 12.922 0 12.1888 0 11.3742C0 9.64314 0.55707 8.25827 1.67121 7.21962C2.80561 6.16061 4.51733 5.38672 6.80638 4.89794C9.11569 4.40916 12.0732 4.16477 15.679 4.16477C17.9073 4.16477 19.6798 4.20551 20.9965 4.28697C22.3334 4.36843 23.4982 4.50081 24.4908 4.6841Z" fill="#0469FF"/>
<path d="M38.4459 23.227C38.7092 23.227 38.9118 23.3492 39.0536 23.5936C39.2157 23.838 39.2967 24.174 39.2967 24.6017C39.2967 25.4163 39.1042 26.0477 38.7194 26.4957C37.7875 27.5751 36.8253 28.461 35.8327 29.1534C34.8604 29.8459 33.7462 30.1921 32.4903 30.1921C31.4572 30.1921 30.6773 29.8968 30.1506 29.3062C29.6239 28.6952 29.3606 27.8195 29.3606 26.679C29.3606 26.1088 29.5024 25.0905 29.786 23.6242C30.0493 22.3411 30.181 21.4552 30.181 20.9664C30.181 20.6406 30.0696 20.4777 29.8468 20.4777C29.5834 20.4777 29.2087 20.8239 28.7225 21.5163C28.2363 22.1884 27.7501 23.0845 27.264 24.2046C26.7778 25.3247 26.3828 26.5059 26.0789 27.7482C25.6941 29.3775 24.742 30.1921 23.2227 30.1921C22.615 30.1921 22.2098 29.9782 22.0073 29.5506C21.8249 29.1025 21.7338 28.3083 21.7338 27.1678C21.7338 26.5161 21.7439 25.9968 21.7642 25.6098L21.7946 23.1659C21.7946 20.0296 22.1085 16.7609 22.7365 13.3599C23.3847 9.9588 24.3267 7.10761 25.5624 4.80629C26.8183 2.48461 28.3173 1.32377 30.0595 1.32377C30.9913 1.32377 31.7408 1.73108 32.308 2.54571C32.8954 3.33997 33.1892 4.37861 33.1892 5.66165C33.1892 7.71858 32.5916 9.85698 31.3964 12.0768C30.2013 14.2763 28.2566 16.8526 25.5624 19.8056C25.5016 20.8646 25.4712 21.9542 25.4712 23.0743C26.1397 21.3432 26.8791 19.938 27.6894 18.8586C28.5199 17.7589 29.3302 16.9748 30.1202 16.5064C30.9305 16.038 31.6699 15.8037 32.3384 15.8037C33.6551 15.8037 34.3134 16.4656 34.3134 17.7894C34.3134 18.5837 34.0906 20.0194 33.645 22.0967C33.2601 23.8685 33.0676 25.0396 33.0676 25.6098C33.0676 26.4244 33.3614 26.8318 33.9488 26.8318C34.354 26.8318 34.83 26.5874 35.3769 26.0986C35.9441 25.5894 36.6936 24.7748 37.6255 23.6547C37.8686 23.3696 38.142 23.227 38.4459 23.227ZM29.4214 4.34807C29.0567 4.34807 28.6516 4.87757 28.2059 5.93659C27.7603 6.97524 27.3247 8.39065 26.8993 10.1828C26.4942 11.9546 26.16 13.8894 25.8966 15.987C27.1526 14.5003 28.1857 12.8813 28.996 11.1298C29.8265 9.37838 30.2418 7.78986 30.2418 6.36427C30.2418 5.71257 30.1709 5.21361 30.0291 4.86739C29.8873 4.52117 29.6847 4.34807 29.4214 4.34807Z" fill="#0469FF"/>
<path d="M50.386 23.227C50.6494 23.227 50.8519 23.3492 50.9937 23.5936C51.1558 23.838 51.2368 24.174 51.2368 24.6017C51.2368 25.4163 51.0444 26.0477 50.6595 26.4957C49.91 27.4122 48.8465 28.2573 47.469 29.0312C46.1118 29.8051 44.6533 30.1921 43.0935 30.1921C40.9665 30.1921 39.3155 29.6117 38.1406 28.4508C36.9657 27.29 36.3782 25.7015 36.3782 23.6853C36.3782 22.28 36.672 20.9766 37.2594 19.7751C37.8469 18.5531 38.6572 17.5857 39.6903 16.8729C40.7436 16.1601 41.9287 15.8037 43.2454 15.8037C44.4203 15.8037 45.3623 16.1601 46.0713 16.8729C46.7803 17.5654 47.1347 18.5124 47.1347 19.714C47.1347 21.1192 46.6283 22.3309 45.6155 23.3492C44.6229 24.3471 42.9314 25.1414 40.5411 25.732C41.0475 26.6688 42.0097 27.1372 43.4277 27.1372C44.3393 27.1372 45.3724 26.8216 46.527 26.1902C47.7019 25.5385 48.7148 24.6934 49.5656 23.6547C49.8087 23.3696 50.0822 23.227 50.386 23.227ZM42.7288 18.7975C41.9793 18.7975 41.3412 19.2354 40.8145 20.1111C40.3081 20.9868 40.0549 22.0458 40.0549 23.2881V23.3492C41.2501 23.0641 42.192 22.6364 42.8808 22.0662C43.5695 21.4959 43.9139 20.8341 43.9139 20.0805C43.9139 19.6936 43.8025 19.3881 43.5796 19.1641C43.3771 18.9197 43.0935 18.7975 42.7288 18.7975Z" fill="#0469FF"/>
<path d="M57.2403 30.2837C54.5462 30.2837 52.3888 29.7746 50.7682 28.7563C49.1476 27.7177 48.3374 26.1393 48.3374 24.0213C48.3374 22.9012 48.5298 22.0458 48.9147 21.4552C49.2996 20.8646 49.8668 20.5693 50.6163 20.5693C51.1632 20.5693 51.6089 20.7119 51.9532 20.997C52.2976 21.2821 52.4698 21.6487 52.4698 22.0967C52.4698 22.504 52.4394 22.8604 52.3786 23.1659C52.3786 23.2474 52.3584 23.39 52.3179 23.5936C52.2976 23.7973 52.2875 24.0111 52.2875 24.2351C52.2875 25.1516 52.7433 25.8338 53.6548 26.2819C54.5867 26.7299 55.8831 26.9539 57.5442 26.9539C59.2661 26.9539 60.6131 26.6485 61.5855 26.0375C62.5578 25.4062 63.044 24.5304 63.044 23.4103C63.044 22.7179 62.8212 22.1273 62.3755 21.6385C61.9299 21.1294 61.3728 20.7119 60.7043 20.386C60.0358 20.0398 59.0939 19.6223 57.8784 19.1335C56.3186 18.5226 55.0424 17.9421 54.0499 17.3923C53.0775 16.8424 52.2368 16.0991 51.5278 15.1622C50.8391 14.205 50.4947 13.0238 50.4947 11.6186C50.4947 10.1523 50.8796 8.84888 51.6494 7.7084C52.4394 6.56792 53.5637 5.68202 55.0222 5.05068C56.501 4.41935 58.2329 4.10368 60.2181 4.10368C61.6969 4.10368 63.0541 4.3277 64.2898 4.77575C65.5255 5.20342 66.508 5.86531 67.2372 6.7614C67.9867 7.65749 68.3615 8.75723 68.3615 10.0606C68.3615 11.3437 68.169 12.311 67.7842 12.9627C67.3993 13.6144 66.8321 13.9403 66.0826 13.9403C65.5559 13.9403 65.1102 13.7774 64.7456 13.4515C64.4012 13.1257 64.229 12.7387 64.229 12.2907C64.229 11.9037 64.2594 11.5473 64.3202 11.2215C64.381 10.6105 64.4113 10.2236 64.4113 10.0606C64.4113 9.20528 63.9961 8.55357 63.1655 8.10553C62.335 7.65749 61.3019 7.43346 60.0662 7.43346C58.3241 7.43346 56.9871 7.75931 56.0553 8.41102C55.1437 9.04235 54.688 9.93844 54.688 11.0993C54.688 11.8732 54.9209 12.5351 55.3868 13.0849C55.873 13.6348 56.4706 14.093 57.1796 14.4596C57.8886 14.8262 58.8812 15.2641 60.1574 15.7732C61.6969 16.4045 62.9326 16.9748 63.8644 17.4839C64.7962 17.9931 65.5863 18.6855 66.2345 19.5612C66.903 20.4369 67.2372 21.5163 67.2372 22.7994C67.2372 25.2025 66.3256 27.0558 64.5025 28.3592C62.6996 29.6422 60.2789 30.2837 57.2403 30.2837Z" fill="#0469FF"/>
<path d="M86.0568 23.227C86.3202 23.227 86.5227 23.3492 86.6645 23.5936C86.8266 23.838 86.9076 24.174 86.9076 24.6017C86.9076 25.4163 86.7152 26.0477 86.3303 26.4957C85.4592 27.5751 84.5173 28.461 83.5044 29.1534C82.5118 29.8459 81.3774 30.1921 80.1012 30.1921C79.0276 30.1921 78.1566 29.8051 77.4881 29.0312C76.3334 29.7848 75.1281 30.1717 73.8722 30.1921C73.6089 34.1227 73.0113 37.4015 72.0794 40.0287C71.1476 42.6762 69.7803 44 67.9774 44C66.8835 44 66.0732 43.6029 65.5465 42.8086C65.0199 42.0143 64.7565 40.9146 64.7565 39.5094C64.7565 37.5135 65.2123 35.1817 66.1239 32.5138C67.0354 29.8662 68.4433 26.9438 70.3475 23.7464C70.3475 20.773 70.3272 18.7059 70.2867 17.545C70.2664 16.9544 70.4994 16.486 70.9856 16.1398C71.4717 15.7936 72.0794 15.6205 72.8087 15.6205C73.2341 15.6205 73.538 15.7121 73.7203 15.8954C73.9228 16.0583 74.0343 16.3944 74.0545 16.9035C74.0545 17.4126 74.0646 17.7894 74.0849 18.0338C74.7331 17.2192 75.3712 16.6387 75.9992 16.2925C76.6272 15.9259 77.2956 15.7427 78.0046 15.7427C79.139 15.7427 80.0607 16.2009 80.7697 17.1173C81.499 18.0338 81.8636 19.2354 81.8636 20.7221C81.8636 21.8014 81.6914 22.8503 81.3471 23.8685C81.0027 24.8868 80.5266 25.8135 79.9189 26.6485C80.3443 26.7707 80.6988 26.8318 80.9824 26.8318C81.6509 26.8318 82.289 26.5874 82.8967 26.0986C83.5044 25.6098 84.2843 24.7952 85.2364 23.6547C85.4795 23.3696 85.753 23.227 86.0568 23.227ZM74.0241 27.2594C74.7534 27.0965 75.4219 26.6994 76.0296 26.068C76.6575 25.4163 77.1538 24.6221 77.5185 23.6853C77.8831 22.7281 78.0654 21.7302 78.0654 20.6915C78.0654 20.0805 77.9439 19.6223 77.7008 19.3168C77.4577 18.991 77.1336 18.828 76.7284 18.828C75.9992 18.828 75.118 19.6019 74.0849 21.1497C74.0646 22.0458 74.0545 23.3594 74.0545 25.0905C74.0545 26.0273 74.0444 26.7503 74.0241 27.2594ZM68.2205 41.0062C68.7674 41.0062 69.2232 39.8047 69.5878 37.4015C69.9525 35.0187 70.1854 32.0454 70.2867 28.4814C69.4156 30.5179 68.7269 32.4629 68.2205 34.3161C67.714 36.1694 67.4608 37.7274 67.4608 38.99C67.4608 39.6417 67.5419 40.1407 67.7039 40.4869C67.8457 40.8331 68.0179 41.0062 68.2205 41.0062Z" fill="#0469FF"/>
<path d="M99.9566 20.661C100.22 20.661 100.423 20.7933 100.564 21.0581C100.706 21.3228 100.777 21.6589 100.777 22.0662C100.777 23.0437 100.483 23.6242 99.8958 23.8075C98.6804 24.2351 97.3434 24.4795 95.8849 24.5406C95.5 26.2513 94.7404 27.626 93.606 28.6647C92.4716 29.6829 91.1853 30.1921 89.747 30.1921C88.5316 30.1921 87.4884 29.8968 86.6173 29.3062C85.7665 28.7156 85.1183 27.9315 84.6726 26.9539C84.227 25.9764 84.0041 24.9174 84.0041 23.7769C84.0041 22.2291 84.2979 20.8544 84.8853 19.6529C85.4728 18.4309 86.2831 17.4839 87.3162 16.8118C88.3493 16.1194 89.4938 15.7732 90.7497 15.7732C92.2893 15.7732 93.525 16.3129 94.4568 17.3923C95.4089 18.4513 95.966 19.7649 96.128 21.333C97.0801 21.2719 98.2145 21.0683 99.5312 20.7221C99.6933 20.6813 99.8351 20.661 99.9566 20.661ZM89.9901 26.9539C90.6383 26.9539 91.1954 26.6892 91.6613 26.1597C92.1475 25.6302 92.4716 24.8665 92.6337 23.8685C92.0057 23.4409 91.5195 22.8808 91.1752 22.1884C90.851 21.496 90.689 20.7628 90.689 19.9889C90.689 19.663 90.7194 19.3372 90.7801 19.0113H90.6282C89.8179 19.0113 89.1393 19.4085 88.5924 20.2027C88.0657 20.9766 87.8023 22.0764 87.8023 23.502C87.8023 24.6221 88.015 25.4774 88.4404 26.068C88.8861 26.6586 89.4027 26.9539 89.9901 26.9539Z" fill="#0469FF"/>
<path d="M101.268 30.1921C100.357 30.1921 99.6073 29.7746 99.0199 28.9396C98.4527 28.0842 98.1691 27.0252 98.1691 25.7626C98.1691 24.2351 98.2704 22.8401 98.4729 21.5774C98.6755 20.2944 99.0097 18.9401 99.4756 17.5145C99.6782 16.9035 99.9618 16.4656 100.326 16.2009C100.691 15.9361 101.268 15.8037 102.058 15.8037C102.504 15.8037 102.808 15.875 102.97 16.0176C103.152 16.1601 103.243 16.374 103.243 16.6591C103.243 16.822 103.132 17.3719 102.909 18.3087C102.707 19.0623 102.545 19.7445 102.423 20.3555C102.018 22.4939 101.815 23.9195 101.815 24.6323C101.815 25.0599 101.866 25.3654 101.967 25.5487C102.069 25.7116 102.231 25.7931 102.453 25.7931C102.757 25.7931 103.132 25.4876 103.578 24.8766C104.044 24.2657 104.53 23.339 105.036 22.0967C105.563 20.8544 106.069 19.327 106.555 17.5145C106.718 16.9035 106.961 16.4656 107.285 16.2009C107.629 15.9361 108.136 15.8037 108.804 15.8037C109.27 15.8037 109.594 15.8648 109.776 15.987C109.959 16.0889 110.05 16.2925 110.05 16.598C110.05 17.1071 109.797 18.5022 109.29 20.7832C108.723 23.39 108.439 24.9988 108.439 25.6098C108.439 25.9968 108.52 26.3022 108.682 26.5263C108.845 26.7299 109.057 26.8318 109.321 26.8318C109.726 26.8318 110.202 26.5874 110.749 26.0986C111.316 25.5894 112.065 24.7748 112.997 23.6547C113.24 23.3696 113.514 23.227 113.818 23.227C114.081 23.227 114.284 23.3492 114.425 23.5936C114.587 23.838 114.668 24.174 114.668 24.6017C114.668 25.4163 114.476 26.0477 114.091 26.4957C113.22 27.5751 112.278 28.461 111.265 29.1534C110.273 29.8459 109.138 30.1921 107.862 30.1921C106.89 30.1921 106.171 29.8153 105.705 29.0618C105.259 28.3083 105.036 27.2492 105.036 25.8847C104.692 27.2696 104.175 28.3388 103.487 29.0923C102.798 29.8255 102.058 30.1921 101.268 30.1921Z" fill="#0469FF"/>
<path d="M114.362 30.1921C113.592 30.1921 113.045 29.7848 112.721 28.9701C112.417 28.1555 112.265 26.8521 112.265 25.0599C112.265 22.4124 112.64 19.8972 113.39 17.5145C113.572 16.9239 113.866 16.4962 114.271 16.2314C114.696 15.9463 115.284 15.8037 116.033 15.8037C116.438 15.8037 116.722 15.8547 116.884 15.9565C117.046 16.0583 117.127 16.2518 117.127 16.5369C117.127 16.8628 116.975 17.5959 116.671 18.7364C116.469 19.551 116.307 20.2638 116.185 20.8748C116.064 21.4858 115.962 22.2393 115.881 23.1354C116.55 21.3839 117.299 19.9583 118.13 18.8586C118.96 17.7589 119.771 16.9748 120.561 16.5064C121.371 16.038 122.11 15.8037 122.779 15.8037C124.096 15.8037 124.754 16.4656 124.754 17.7894C124.754 18.5837 124.531 20.0194 124.085 22.0967C123.701 23.8685 123.508 25.0396 123.508 25.6098C123.508 26.4244 123.802 26.8318 124.389 26.8318C124.794 26.8318 125.27 26.5874 125.817 26.0986C126.385 25.5894 127.134 24.7748 128.066 23.6547C128.309 23.3696 128.582 23.227 128.886 23.227C129.15 23.227 129.352 23.3492 129.494 23.5936C129.656 23.838 129.737 24.174 129.737 24.6017C129.737 25.4163 129.545 26.0477 129.16 26.4957C128.289 27.5751 127.347 28.461 126.334 29.1534C125.341 29.8459 124.207 30.1921 122.931 30.1921C121.898 30.1921 121.118 29.8968 120.591 29.3062C120.064 28.6952 119.801 27.8195 119.801 26.679C119.801 26.1088 119.943 25.0905 120.226 23.6242C120.49 22.3411 120.621 21.4552 120.621 20.9664C120.621 20.6406 120.51 20.4777 120.287 20.4777C120.024 20.4777 119.649 20.8239 119.163 21.5163C118.697 22.1884 118.211 23.0845 117.704 24.2046C117.218 25.3247 116.823 26.5059 116.519 27.7482C116.297 28.7054 116.033 29.3571 115.729 29.7033C115.446 30.0292 114.99 30.1921 114.362 30.1921Z" fill="#0469FF"/>
<path d="M138.157 24.1435C138.42 24.1435 138.623 24.2657 138.764 24.5101C138.927 24.7545 139.008 25.0905 139.008 25.5182C139.008 26.2513 138.835 26.8827 138.491 27.4122C137.924 28.2879 137.174 28.9701 136.242 29.4589C135.331 29.9477 134.237 30.1921 132.961 30.1921C131.016 30.1921 129.507 29.6117 128.433 28.4508C127.36 27.2696 126.823 25.6811 126.823 23.6853C126.823 22.28 127.117 20.9766 127.704 19.7751C128.292 18.5531 129.102 17.5857 130.135 16.8729C131.188 16.1601 132.373 15.8037 133.69 15.8037C134.865 15.8037 135.807 16.1601 136.516 16.8729C137.225 17.5654 137.579 18.5124 137.579 19.714C137.579 21.1192 137.073 22.3309 136.06 23.3492C135.068 24.3471 133.366 25.1414 130.955 25.732C131.442 26.6688 132.262 27.1372 133.417 27.1372C134.247 27.1372 134.926 26.9438 135.452 26.5568C135.999 26.1699 136.627 25.5182 137.336 24.6017C137.579 24.2962 137.853 24.1435 138.157 24.1435ZM133.174 18.7975C132.424 18.7975 131.786 19.2354 131.259 20.1111C130.753 20.9868 130.5 22.0458 130.5 23.2881V23.3492C131.695 23.0641 132.637 22.6364 133.325 22.0662C134.014 21.4959 134.359 20.8341 134.359 20.0805C134.359 19.6936 134.247 19.3881 134.024 19.1641C133.822 18.9197 133.538 18.7975 133.174 18.7975Z" fill="#0469FF"/>
<path d="M166.44 32.4282C172.626 29.9647 177 23.8968 177 16.8017C177 7.52236 169.518 0 160.288 0C151.058 0 143.576 7.52236 143.576 16.8017C143.576 26.081 151.058 33.6033 160.288 33.6033C161.035 33.6033 161.77 33.5541 162.49 33.4587L159.423 21.9418C157.99 22.1825 156.565 21.8956 155.373 21.2037C150.953 18.6377 149.596 10.7485 152.655 5.42191C154.344 2.48122 158.087 1.47284 161.012 3.17065C166.311 6.24593 169.06 13.76 166.504 18.2099C165.816 19.4083 164.725 20.373 163.364 20.885L166.44 32.4282Z" fill="#0469FF"/>
</svg>
